<svg xmlns="http://www.w3.org/2000/svg" width="293" height="39" fill="none"><g clip-path="url(#a)"><path fill="#CE9178" d="m84.23 33.27-3.12-1.425L93.8 5.565l3.09 1.455-12.66 26.25Zm24.378-19.605c1.4 0 2.52.345 3.36 1.035.85.68 1.465 1.645 1.845 2.895.39 1.25.585 2.725.585 4.425 0 1.63-.235 3.08-.705 4.35-.47 1.27-1.16 2.27-2.07 3-.9.72-2.01 1.08-3.33 1.08-1.62 0-2.93-.575-3.93-1.725v7.395l-3.96.42V14.115h3.48l.21 1.935c.63-.82 1.335-1.42 2.115-1.8.78-.39 1.58-.585 2.4-.585Zm-1.155 2.97c-.67 0-1.26.2-1.77.6-.5.4-.94.895-1.32 1.485v7.11c.36.54.77.945 1.23 1.215.46.27.98.405 1.56.405 1.01 0 1.78-.42 2.31-1.26.54-.85.81-2.225.81-4.125 0-1.34-.11-2.405-.33-3.195-.21-.8-.525-1.37-.945-1.71-.42-.35-.935-.525-1.545-.525ZM118.542 30v-2.745h2.235v-10.41h-2.235v-2.73h5.25l.735 3.645c.58-1.35 1.31-2.365 2.19-3.045.88-.69 1.985-1.035 3.315-1.035.51 0 .96.04 1.35.12.4.08.78.185 1.14.315l-1.185 3.33c-.31-.08-.605-.14-.885-.18a5.405 5.405 0 0 0-.945-.075c-1.1 0-2.06.43-2.88 1.29-.81.85-1.44 2.005-1.89 3.465v5.31h3.165V30h-9.36Zm10.635-9.69v-4.215l.54-1.98h2.805l-.705 6.195h-2.64Zm13.803-6.645c1.58 0 2.92.345 4.02 1.035 1.1.69 1.935 1.665 2.505 2.925.58 1.25.87 2.715.87 4.395 0 1.72-.29 3.21-.87 4.47-.58 1.26-1.42 2.235-2.52 2.925s-2.44 1.035-4.02 1.035c-1.57 0-2.91-.335-4.02-1.005-1.1-.68-1.94-1.645-2.52-2.895-.58-1.26-.87-2.76-.87-4.5 0-1.66.29-3.12.87-4.38.58-1.26 1.425-2.24 2.535-2.94 1.11-.71 2.45-1.065 4.02-1.065Zm0 2.985c-1.11 0-1.94.435-2.49 1.305-.54.87-.81 2.235-.81 4.095 0 1.88.27 3.255.81 4.125.54.86 1.365 1.29 2.475 1.29s1.935-.43 2.475-1.29c.54-.87.81-2.255.81-4.155 0-1.85-.27-3.205-.81-4.065-.54-.87-1.36-1.305-2.46-1.305Zm25.083-4.77.99 3.09c-.6.21-1.275.36-2.025.45-.75.08-1.61.12-2.58.12.97.42 1.705.955 2.205 1.605.51.64.765 1.455.765 2.445 0 1.03-.265 1.95-.795 2.76-.52.81-1.265 1.445-2.235 1.905-.96.46-2.105.69-3.435.69-.41 0-.775-.02-1.095-.06-.32-.04-.63-.095-.93-.165-.2.11-.355.27-.465.48-.11.21-.165.425-.165.645 0 .3.115.56.345.78.24.21.75.315 1.53.315h2.7c1.17 0 2.195.2 3.075.6.89.39 1.58.92 2.07 1.59.5.67.75 1.44.75 2.31 0 1.6-.695 2.85-2.085 3.75-1.39.9-3.42 1.35-6.09 1.35-1.91 0-3.4-.195-4.47-.585-1.06-.39-1.805-.96-2.235-1.71-.43-.74-.645-1.635-.645-2.685h3.525c0 .51.1.93.3 1.26.21.33.595.575 1.155.735.57.16 1.385.24 2.445.24 1.06 0 1.89-.085 2.49-.255.61-.17 1.04-.415 1.29-.735.25-.31.375-.675.375-1.095 0-.57-.24-1.015-.72-1.335-.48-.32-1.16-.48-2.04-.48h-2.625c-1.6 0-2.765-.31-3.495-.93-.73-.63-1.095-1.355-1.095-2.175 0-.56.15-1.095.45-1.605.31-.52.75-.96 1.32-1.32-.98-.52-1.69-1.14-2.13-1.86-.43-.73-.645-1.61-.645-2.64 0-1.15.29-2.15.87-3 .58-.85 1.385-1.51 2.415-1.98s2.215-.705 3.555-.705c1.23.01 2.275-.065 3.135-.225.87-.16 1.635-.38 2.295-.66.67-.28 1.32-.585 1.95-.915Zm-7.305 4.44c-.94 0-1.66.275-2.16.825-.49.55-.735 1.28-.735 2.19 0 .94.255 1.685.765 2.235.51.55 1.225.825 2.145.825.91 0 1.6-.265 2.07-.795.48-.54.72-1.31.72-2.31s-.24-1.745-.72-2.235c-.47-.49-1.165-.735-2.085-.735ZM172.506 30v-2.745h2.235v-10.41h-2.235v-2.73h5.25l.735 3.645c.58-1.35 1.31-2.365 2.19-3.045.88-.69 1.985-1.035 3.315-1.035.51 0 .96.04 1.35.12.4.08.78.185 1.14.315l-1.185 3.33c-.31-.08-.605-.14-.885-.18a5.405 5.405 0 0 0-.945-.075c-1.1 0-2.06.43-2.88 1.29-.81.85-1.44 2.005-1.89 3.465v5.31h3.165V30h-9.36Zm10.635-9.69v-4.215l.54-1.98h2.805l-.705 6.195h-2.64Zm19.879 5.505c0 .61.09 1.055.27 1.335.18.27.47.475.87.615l-.855 2.655c-.85-.09-1.575-.3-2.175-.63-.59-.34-1.045-.845-1.365-1.515-.6.73-1.36 1.275-2.28 1.635-.91.36-1.865.54-2.865.54-1.62 0-2.905-.46-3.855-1.38-.95-.92-1.425-2.115-1.425-3.585 0-1.69.66-2.99 1.98-3.9 1.33-.92 3.21-1.38 5.64-1.38h2.22v-.855c0-.94-.29-1.62-.87-2.04-.58-.43-1.415-.645-2.505-.645-.51 0-1.15.07-1.92.21-.76.13-1.545.335-2.355.615l-.945-2.715a17.05 17.05 0 0 1 3.045-.84c1.03-.18 1.965-.27 2.805-.27 2.23 0 3.885.475 4.965 1.425 1.08.94 1.62 2.275 1.62 4.005v6.72Zm-7.11 1.77c.6 0 1.205-.17 1.815-.51a3.693 3.693 0 0 0 1.455-1.425v-3.09h-1.56c-1.47 0-2.535.235-3.195.705-.65.47-.975 1.135-.975 1.995 0 .74.21 1.315.63 1.725.42.4 1.03.6 1.83.6Zm23.718-13.92c.68 0 1.26.145 1.74.435.48.28.85.755 1.11 1.425.26.66.39 1.56.39 2.7V30h-3.45V18.72c0-.72-.06-1.23-.18-1.53-.11-.3-.365-.45-.765-.45-.33 0-.665.1-1.005.3-.33.19-.675.535-1.035 1.035V30h-2.985V18.72c0-.72-.06-1.23-.18-1.53-.11-.3-.365-.45-.765-.45-.34 0-.675.1-1.005.3-.33.19-.675.535-1.035 1.035V30h-3.495V14.115h2.955l.255 1.65c.47-.66.965-1.175 1.485-1.545.52-.37 1.145-.555 1.875-.555.6 0 1.13.15 1.59.45.47.29.805.79 1.005 1.5.46-.58.975-1.05 1.545-1.41.57-.36 1.22-.54 1.95-.54Zm17.988 0c.68 0 1.26.145 1.74.435.48.28.85.755 1.11 1.425.26.66.39 1.56.39 2.7V30h-3.45V18.72c0-.72-.06-1.23-.18-1.53-.11-.3-.365-.45-.765-.45-.33 0-.665.1-1.005.3-.33.19-.675.535-1.035 1.035V30h-2.985V18.72c0-.72-.06-1.23-.18-1.53-.11-.3-.365-.45-.765-.45-.34 0-.675.1-1.005.3-.33.19-.675.535-1.035 1.035V30h-3.495V14.115h2.955l.255 1.65c.47-.66.965-1.175 1.485-1.545.52-.37 1.145-.555 1.875-.555.6 0 1.13.15 1.59.45.47.29.805.79 1.005 1.5.46-.58.975-1.05 1.545-1.41.57-.36 1.22-.54 1.95-.54Zm10.069 9.6c.08.99.305 1.795.675 2.415.38.62.865 1.075 1.455 1.365.59.29 1.245.435 1.965.435.76 0 1.475-.12 2.145-.36.67-.24 1.33-.575 1.98-1.005l1.65 2.265c-.74.62-1.625 1.12-2.655 1.5-1.02.38-2.145.57-3.375.57-1.72 0-3.17-.355-4.35-1.065a6.794 6.794 0 0 1-2.655-2.955c-.6-1.26-.9-2.71-.9-4.35 0-1.58.295-3.005.885-4.275.59-1.27 1.44-2.275 2.55-3.015 1.11-.75 2.45-1.125 4.02-1.125 1.46 0 2.72.32 3.78.96 1.06.64 1.88 1.56 2.46 2.76.58 1.19.87 2.625.87 4.305 0 .27-.01.545-.03.825-.01.28-.025.53-.045.75h-10.425Zm3.405-6.81c-.96 0-1.75.345-2.37 1.035-.61.68-.97 1.76-1.08 3.24h6.69c-.02-1.34-.3-2.385-.84-3.135-.53-.76-1.33-1.14-2.4-1.14ZM262.448 30v-2.745h2.235v-10.41h-2.235v-2.73h5.25l.735 3.645c.58-1.35 1.31-2.365 2.19-3.045.88-.69 1.985-1.035 3.315-1.035.51 0 .96.04 1.35.12.4.08.78.185 1.14.315l-1.185 3.33c-.31-.08-.605-.14-.885-.18a5.405 5.405 0 0 0-.945-.075c-1.1 0-2.06.43-2.88 1.29-.81.85-1.44 2.005-1.89 3.465v5.31h3.165V30h-9.36Zm10.635-9.69v-4.215l.54-1.98h2.805l-.705 6.195h-2.64Z"/><path fill="#569CD6" d="m13.23 33.27-3.12-1.425L22.8 5.565l3.09 1.455-12.66 26.25ZM38.613 7.35l3.96.42V30h-3.51l-.24-1.875a5.755 5.755 0 0 1-1.845 1.695c-.74.42-1.6.63-2.58.63-1.34 0-2.45-.35-3.33-1.05-.87-.7-1.52-1.68-1.95-2.94-.42-1.27-.63-2.745-.63-4.425 0-1.62.25-3.06.75-4.32.5-1.26 1.22-2.25 2.16-2.97.95-.72 2.075-1.08 3.375-1.08.78 0 1.49.135 2.13.405.64.27 1.21.67 1.71 1.2V7.35Zm-2.775 9.27c-1 0-1.79.435-2.37 1.305-.57.86-.855 2.235-.855 4.125 0 1.33.12 2.395.36 3.195.24.79.58 1.36 1.02 1.71.44.35.96.525 1.56.525.66 0 1.24-.195 1.74-.585.51-.4.95-.895 1.32-1.485v-7.23c-.37-.49-.785-.87-1.245-1.14-.45-.28-.96-.42-1.53-.42Zm14.929 6.645c.08.99.305 1.795.675 2.415.38.62.865 1.075 1.455 1.365.59.29 1.245.435 1.965.435.76 0 1.475-.12 2.145-.36.67-.24 1.33-.575 1.98-1.005l1.65 2.265c-.74.62-1.625 1.12-2.655 1.5-1.02.38-2.145.57-3.375.57-1.72 0-3.17-.355-4.35-1.065a6.794 6.794 0 0 1-2.655-2.955c-.6-1.26-.9-2.71-.9-4.35 0-1.58.295-3.005.885-4.275.59-1.27 1.44-2.275 2.55-3.015 1.11-.75 2.45-1.125 4.02-1.125 1.46 0 2.72.32 3.78.96 1.06.64 1.88 1.56 2.46 2.76.58 1.19.87 2.625.87 4.305 0 .27-.01.545-.03.825-.01.28-.025.53-.045.75H50.767Zm3.405-6.81c-.96 0-1.75.345-2.37 1.035-.61.68-.97 1.76-1.08 3.24h6.69c-.02-1.34-.3-2.385-.84-3.135-.53-.76-1.33-1.14-2.4-1.14Zm25.593-2.34L74.305 30h-4.65l-5.49-15.885h4.26l3.615 12.72 3.69-12.72h4.035Z"/></g><defs><clipPath id="a"><path fill="#fff" d="M0 0h293v39H0z"/></clipPath></defs></svg>